<?xml version="1.0" encoding="UTF-8"?>
<!DOCTYPE svg PUBLIC "-//W3C//DTD SVG 1.1//EN" "http://www.w3.org/Graphics/SVG/1.1/DTD/svg11.dtd">
<!-- Creator: CorelDRAW 2017 -->
<svg xmlns="http://www.w3.org/2000/svg" xml:space="preserve" width="84.9312mm" height="29.6332mm" version="1.1" style="shape-rendering:geometricPrecision; text-rendering:geometricPrecision; image-rendering:optimizeQuality; fill-rule:evenodd; clip-rule:evenodd"
viewBox="0 0 8414 2936"
 xmlns:xlink="http://www.w3.org/1999/xlink">
 <defs>
  <style type="text/css">
   <![CDATA[
    .str0 {stroke:black;stroke-width:52.43}
    .fil0 {fill:#FFEF50}
    .fil1 {fill:black;fill-rule:nonzero}
   ]]>
  </style>
 </defs>
 <g id="Warstwa_x0020_1">
  <metadata id="CorelCorpID_0Corel-Layer"/>
  <g id="_2075626505536">
   <path class="fil0 str0" d="M4207 26c2309,0 4181,645 4181,1442 0,796 -1872,1442 -4181,1442 -2309,0 -4181,-645 -4181,-1442 0,-796 1872,-1442 4181,-1442z"/>
   <path class="fil1" d="M1832 868l-521 0 0 47c163,10 179,22 179,163l0 572c0,141 -4,238 -22,319 -20,96 -81,173 -193,220l26 47c50,-13 119,-45 187,-97 133,-102 173,-218 173,-433l0 -627c0,-141 16,-153 171,-163l0 -47zm1494 0l-479 0 0 47c141,8 183,29 195,94 8,52 14,122 14,277l0 126c0,277 -91,478 -380,478 -250,0 -378,-154 -378,-424l0 -381c0,-151 16,-161 175,-169l0 -47 -521 0 0 47c159,12 175,18 175,169l0 418c0,196 56,322 177,399 89,57 205,81 322,81 133,0 268,-35 360,-116 117,-102 153,-245 153,-443l0 -138c0,-154 4,-226 10,-272 10,-69 56,-92 177,-99l0 -47zm1743 1090l0 -47c-175,-13 -181,-22 -187,-200l-20 -607c-6,-173 8,-176 185,-190l0 -47 -343 0 -464 839 -458 -839 -330 0 0 47c183,15 193,22 175,240l-28 349c-16,174 -29,248 -39,307 -14,70 -54,89 -171,101l0 47 469 0 0 -47c-133,-12 -181,-23 -185,-104 -2,-67 -2,-141 6,-278l31 -478 4 0 450 896 40 0 490 -919 8 0 6 684c2,178 -6,186 -169,200l0 47 529 0zm671 0l0 -47c-165,-10 -181,-18 -181,-163l0 -671c0,-143 16,-153 181,-163l0 -47 -533 0 0 47c165,10 181,20 181,163l0 671c0,143 -16,153 -181,163l0 47 533 0zm1206 -295c-36,82 -68,136 -109,173 -56,50 -133,62 -384,62 -139,0 -262,-3 -328,-10 278,-341 554,-666 831,-997l-14 -23 -803 0c-60,0 -83,-3 -107,-42l-48 0c-2,75 -14,201 -24,309l60 0c22,-74 44,-116 68,-146 34,-45 66,-60 284,-60l350 0c-282,342 -566,673 -847,1005l16 25 1041 0c22,-69 58,-225 74,-285l-60 -10z"/>
   <path class="fil1" d="M7092 627c-73,0 -128,59 -128,128 0,73 55,128 128,128 74,0 129,-61 129,-128 0,-70 -56,-128 -128,-128l-1 0zm0 23c58,0 100,47 100,105 0,60 -43,104 -100,104 -57,0 -99,-45 -99,-104 0,-59 41,-105 98,-105l1 0zm74 162c-4,-2 -8,-5 -13,-10 -15,-17 -23,-28 -33,-47 16,-6 27,-17 27,-34 0,-29 -26,-35 -48,-35l-68 0 0 15c16,1 18,1 18,19l0 68c0,18 -2,18 -19,19l0 16 67 0 0 -16c-17,-1 -19,-1 -19,-19l0 -24 4 0c5,0 10,1 14,7 4,7 9,20 18,32 12,16 26,21 48,21l4 -12zm-87 -63l0 -36c0,-10 4,-12 13,-12 8,0 24,4 24,23 0,10 -3,17 -11,21 -4,3 -12,4 -17,4l-9 0z"/>
  </g>
 </g>
</svg>
